<mxfile host="Electron" agent="Mozilla/5.0 (Windows NT 10.0; Win64; x64) AppleWebKit/537.36 (KHTML, like Gecko) draw.io/28.0.6 Chrome/138.0.7204.100 Electron/37.2.3 Safari/537.36" version="28.0.6">
  <diagram name="Diagrama Salario" id="6nKT_ZYde_Fa-JG_3Hvo">
    <mxGraphModel dx="1209" dy="737" grid="1" gridSize="10" guides="1" tooltips="1" connect="1" arrows="1" fold="1" page="1" pageScale="1" pageWidth="827" pageHeight="1169" math="0" shadow="0">
      <root>
        <mxCell id="0" />
        <mxCell id="1" parent="0" />
        <mxCell id="oETMwb7WQTxF7lPfTcej-3" style="edgeStyle=orthogonalEdgeStyle;rounded=0;orthogonalLoop=1;jettySize=auto;html=1;exitX=0.5;exitY=1;exitDx=0;exitDy=0;" edge="1" parent="1" source="oETMwb7WQTxF7lPfTcej-1" target="oETMwb7WQTxF7lPfTcej-4">
          <mxGeometry relative="1" as="geometry">
            <mxPoint x="399" y="170" as="targetPoint" />
          </mxGeometry>
        </mxCell>
        <mxCell id="oETMwb7WQTxF7lPfTcej-1" value="" style="ellipse;whiteSpace=wrap;html=1;aspect=fixed;fillColor=#00CC00;" vertex="1" parent="1">
          <mxGeometry x="384" y="100" width="30" height="30" as="geometry" />
        </mxCell>
        <mxCell id="oETMwb7WQTxF7lPfTcej-2" value="Inicio" style="text;html=1;align=center;verticalAlign=middle;resizable=0;points=[];autosize=1;strokeColor=none;fillColor=none;" vertex="1" parent="1">
          <mxGeometry x="375" y="68" width="50" height="30" as="geometry" />
        </mxCell>
        <mxCell id="oETMwb7WQTxF7lPfTcej-5" style="edgeStyle=orthogonalEdgeStyle;rounded=0;orthogonalLoop=1;jettySize=auto;html=1;exitX=0.5;exitY=1;exitDx=0;exitDy=0;" edge="1" parent="1" source="oETMwb7WQTxF7lPfTcej-4">
          <mxGeometry relative="1" as="geometry">
            <mxPoint x="399" y="210" as="targetPoint" />
          </mxGeometry>
        </mxCell>
        <mxCell id="oETMwb7WQTxF7lPfTcej-4" value="salário (s)" style="rounded=0;whiteSpace=wrap;html=1;" vertex="1" parent="1">
          <mxGeometry x="339" y="150" width="120" height="40" as="geometry" />
        </mxCell>
        <mxCell id="oETMwb7WQTxF7lPfTcej-7" style="edgeStyle=orthogonalEdgeStyle;rounded=0;orthogonalLoop=1;jettySize=auto;html=1;exitX=0.5;exitY=1;exitDx=0;exitDy=0;" edge="1" parent="1" source="oETMwb7WQTxF7lPfTcej-6" target="oETMwb7WQTxF7lPfTcej-8">
          <mxGeometry relative="1" as="geometry">
            <mxPoint x="399" y="270" as="targetPoint" />
          </mxGeometry>
        </mxCell>
        <mxCell id="oETMwb7WQTxF7lPfTcej-6" value="mensalidade (m)" style="rounded=0;whiteSpace=wrap;html=1;" vertex="1" parent="1">
          <mxGeometry x="339" y="210" width="120" height="40" as="geometry" />
        </mxCell>
        <mxCell id="oETMwb7WQTxF7lPfTcej-9" style="edgeStyle=orthogonalEdgeStyle;rounded=0;orthogonalLoop=1;jettySize=auto;html=1;exitX=0.5;exitY=1;exitDx=0;exitDy=0;" edge="1" parent="1" source="oETMwb7WQTxF7lPfTcej-8" target="oETMwb7WQTxF7lPfTcej-10">
          <mxGeometry relative="1" as="geometry">
            <mxPoint x="400" y="340" as="targetPoint" />
          </mxGeometry>
        </mxCell>
        <mxCell id="oETMwb7WQTxF7lPfTcej-8" value="média diária = (s-m)/30" style="rounded=0;whiteSpace=wrap;html=1;" vertex="1" parent="1">
          <mxGeometry x="329.5" y="280" width="141" height="40" as="geometry" />
        </mxCell>
        <mxCell id="oETMwb7WQTxF7lPfTcej-11" style="edgeStyle=orthogonalEdgeStyle;rounded=0;orthogonalLoop=1;jettySize=auto;html=1;exitX=1;exitY=0.5;exitDx=0;exitDy=0;" edge="1" parent="1" source="oETMwb7WQTxF7lPfTcej-10" target="oETMwb7WQTxF7lPfTcej-15">
          <mxGeometry relative="1" as="geometry">
            <mxPoint x="490" y="390" as="targetPoint" />
          </mxGeometry>
        </mxCell>
        <mxCell id="oETMwb7WQTxF7lPfTcej-13" style="edgeStyle=orthogonalEdgeStyle;rounded=0;orthogonalLoop=1;jettySize=auto;html=1;exitX=0.5;exitY=1;exitDx=0;exitDy=0;" edge="1" parent="1" source="oETMwb7WQTxF7lPfTcej-10" target="oETMwb7WQTxF7lPfTcej-14">
          <mxGeometry relative="1" as="geometry">
            <mxPoint x="400" y="460" as="targetPoint" />
          </mxGeometry>
        </mxCell>
        <mxCell id="oETMwb7WQTxF7lPfTcej-10" value="média diária &amp;lt;= 15" style="rhombus;whiteSpace=wrap;html=1;" vertex="1" parent="1">
          <mxGeometry x="340" y="350" width="120" height="80" as="geometry" />
        </mxCell>
        <mxCell id="oETMwb7WQTxF7lPfTcej-17" style="edgeStyle=orthogonalEdgeStyle;rounded=0;orthogonalLoop=1;jettySize=auto;html=1;exitX=1;exitY=0.5;exitDx=0;exitDy=0;entryX=0;entryY=0.5;entryDx=0;entryDy=0;" edge="1" parent="1" source="oETMwb7WQTxF7lPfTcej-14" target="oETMwb7WQTxF7lPfTcej-16">
          <mxGeometry relative="1" as="geometry" />
        </mxCell>
        <mxCell id="oETMwb7WQTxF7lPfTcej-18" style="edgeStyle=orthogonalEdgeStyle;rounded=0;orthogonalLoop=1;jettySize=auto;html=1;exitX=0.5;exitY=1;exitDx=0;exitDy=0;" edge="1" parent="1" source="oETMwb7WQTxF7lPfTcej-14" target="oETMwb7WQTxF7lPfTcej-19">
          <mxGeometry relative="1" as="geometry">
            <mxPoint x="400" y="570" as="targetPoint" />
          </mxGeometry>
        </mxCell>
        <mxCell id="oETMwb7WQTxF7lPfTcej-14" value="média diária &amp;gt; 15" style="rhombus;whiteSpace=wrap;html=1;" vertex="1" parent="1">
          <mxGeometry x="344.5" y="460" width="111" height="80" as="geometry" />
        </mxCell>
        <mxCell id="oETMwb7WQTxF7lPfTcej-50" style="edgeStyle=orthogonalEdgeStyle;rounded=0;orthogonalLoop=1;jettySize=auto;html=1;exitX=1;exitY=0.5;exitDx=0;exitDy=0;" edge="1" parent="1" source="oETMwb7WQTxF7lPfTcej-15" target="oETMwb7WQTxF7lPfTcej-43">
          <mxGeometry relative="1" as="geometry" />
        </mxCell>
        <mxCell id="oETMwb7WQTxF7lPfTcej-15" value="#controletotal" style="rounded=0;whiteSpace=wrap;html=1;" vertex="1" parent="1">
          <mxGeometry x="490" y="360" width="120" height="60" as="geometry" />
        </mxCell>
        <mxCell id="oETMwb7WQTxF7lPfTcej-54" style="edgeStyle=orthogonalEdgeStyle;rounded=0;orthogonalLoop=1;jettySize=auto;html=1;exitX=1;exitY=0.5;exitDx=0;exitDy=0;entryX=0;entryY=0;entryDx=0;entryDy=0;" edge="1" parent="1" source="oETMwb7WQTxF7lPfTcej-16" target="oETMwb7WQTxF7lPfTcej-43">
          <mxGeometry relative="1" as="geometry" />
        </mxCell>
        <mxCell id="oETMwb7WQTxF7lPfTcej-16" value="#ragazzonosabado" style="rounded=0;whiteSpace=wrap;html=1;" vertex="1" parent="1">
          <mxGeometry x="490" y="470" width="120" height="60" as="geometry" />
        </mxCell>
        <mxCell id="oETMwb7WQTxF7lPfTcej-21" style="edgeStyle=orthogonalEdgeStyle;rounded=0;orthogonalLoop=1;jettySize=auto;html=1;exitX=1;exitY=0.5;exitDx=0;exitDy=0;entryX=0;entryY=0.5;entryDx=0;entryDy=0;" edge="1" parent="1" source="oETMwb7WQTxF7lPfTcej-19" target="oETMwb7WQTxF7lPfTcej-20">
          <mxGeometry relative="1" as="geometry" />
        </mxCell>
        <mxCell id="oETMwb7WQTxF7lPfTcej-22" style="edgeStyle=orthogonalEdgeStyle;rounded=0;orthogonalLoop=1;jettySize=auto;html=1;exitX=0.5;exitY=1;exitDx=0;exitDy=0;" edge="1" parent="1" source="oETMwb7WQTxF7lPfTcej-19" target="oETMwb7WQTxF7lPfTcej-23">
          <mxGeometry relative="1" as="geometry">
            <mxPoint x="400" y="690" as="targetPoint" />
          </mxGeometry>
        </mxCell>
        <mxCell id="oETMwb7WQTxF7lPfTcej-19" value="média diária &amp;lt;= 25" style="rhombus;whiteSpace=wrap;html=1;" vertex="1" parent="1">
          <mxGeometry x="340" y="570" width="120" height="80" as="geometry" />
        </mxCell>
        <mxCell id="oETMwb7WQTxF7lPfTcej-53" style="edgeStyle=orthogonalEdgeStyle;rounded=0;orthogonalLoop=1;jettySize=auto;html=1;exitX=1;exitY=0.25;exitDx=0;exitDy=0;entryX=0;entryY=0.5;entryDx=0;entryDy=0;" edge="1" parent="1" source="oETMwb7WQTxF7lPfTcej-20" target="oETMwb7WQTxF7lPfTcej-43">
          <mxGeometry relative="1" as="geometry" />
        </mxCell>
        <mxCell id="oETMwb7WQTxF7lPfTcej-20" value="#cinemanamorada" style="rounded=0;whiteSpace=wrap;html=1;" vertex="1" parent="1">
          <mxGeometry x="490" y="580" width="120" height="60" as="geometry" />
        </mxCell>
        <mxCell id="oETMwb7WQTxF7lPfTcej-27" style="edgeStyle=orthogonalEdgeStyle;rounded=0;orthogonalLoop=1;jettySize=auto;html=1;exitX=1;exitY=0.5;exitDx=0;exitDy=0;entryX=0;entryY=0.5;entryDx=0;entryDy=0;" edge="1" parent="1" source="oETMwb7WQTxF7lPfTcej-23" target="oETMwb7WQTxF7lPfTcej-26">
          <mxGeometry relative="1" as="geometry" />
        </mxCell>
        <mxCell id="oETMwb7WQTxF7lPfTcej-28" style="edgeStyle=orthogonalEdgeStyle;rounded=0;orthogonalLoop=1;jettySize=auto;html=1;exitX=0.5;exitY=1;exitDx=0;exitDy=0;" edge="1" parent="1" source="oETMwb7WQTxF7lPfTcej-23" target="oETMwb7WQTxF7lPfTcej-29">
          <mxGeometry relative="1" as="geometry">
            <mxPoint x="400" y="790" as="targetPoint" />
          </mxGeometry>
        </mxCell>
        <mxCell id="oETMwb7WQTxF7lPfTcej-23" value="média diária &amp;gt; 25" style="rhombus;whiteSpace=wrap;html=1;" vertex="1" parent="1">
          <mxGeometry x="335" y="680" width="130" height="80" as="geometry" />
        </mxCell>
        <mxCell id="oETMwb7WQTxF7lPfTcej-52" style="edgeStyle=orthogonalEdgeStyle;rounded=0;orthogonalLoop=1;jettySize=auto;html=1;exitX=1;exitY=0.5;exitDx=0;exitDy=0;entryX=0;entryY=1;entryDx=0;entryDy=0;" edge="1" parent="1" source="oETMwb7WQTxF7lPfTcej-26" target="oETMwb7WQTxF7lPfTcej-43">
          <mxGeometry relative="1" as="geometry" />
        </mxCell>
        <mxCell id="oETMwb7WQTxF7lPfTcej-26" value="#novogame" style="rounded=0;whiteSpace=wrap;html=1;" vertex="1" parent="1">
          <mxGeometry x="490" y="690" width="120" height="60" as="geometry" />
        </mxCell>
        <mxCell id="oETMwb7WQTxF7lPfTcej-33" style="edgeStyle=orthogonalEdgeStyle;rounded=0;orthogonalLoop=1;jettySize=auto;html=1;exitX=1;exitY=0.5;exitDx=0;exitDy=0;entryX=0;entryY=0.5;entryDx=0;entryDy=0;" edge="1" parent="1" source="oETMwb7WQTxF7lPfTcej-29" target="oETMwb7WQTxF7lPfTcej-31">
          <mxGeometry relative="1" as="geometry" />
        </mxCell>
        <mxCell id="oETMwb7WQTxF7lPfTcej-29" value="média diária &amp;gt; 30" style="rhombus;whiteSpace=wrap;html=1;" vertex="1" parent="1">
          <mxGeometry x="340" y="780" width="120" height="80" as="geometry" />
        </mxCell>
        <mxCell id="oETMwb7WQTxF7lPfTcej-51" style="edgeStyle=orthogonalEdgeStyle;rounded=0;orthogonalLoop=1;jettySize=auto;html=1;exitX=1;exitY=0.5;exitDx=0;exitDy=0;entryX=0.5;entryY=1;entryDx=0;entryDy=0;" edge="1" parent="1" source="oETMwb7WQTxF7lPfTcej-31" target="oETMwb7WQTxF7lPfTcej-43">
          <mxGeometry relative="1" as="geometry" />
        </mxCell>
        <mxCell id="oETMwb7WQTxF7lPfTcej-31" value="#tobonito" style="rounded=0;whiteSpace=wrap;html=1;" vertex="1" parent="1">
          <mxGeometry x="490" y="790" width="120" height="60" as="geometry" />
        </mxCell>
        <mxCell id="oETMwb7WQTxF7lPfTcej-34" value="s" style="text;html=1;align=center;verticalAlign=middle;resizable=0;points=[];autosize=1;strokeColor=none;fillColor=none;" vertex="1" parent="1">
          <mxGeometry x="445" y="348" width="30" height="30" as="geometry" />
        </mxCell>
        <mxCell id="oETMwb7WQTxF7lPfTcej-35" value="s" style="text;html=1;align=center;verticalAlign=middle;resizable=0;points=[];autosize=1;strokeColor=none;fillColor=none;" vertex="1" parent="1">
          <mxGeometry x="445" y="460" width="30" height="30" as="geometry" />
        </mxCell>
        <mxCell id="oETMwb7WQTxF7lPfTcej-36" value="s" style="text;html=1;align=center;verticalAlign=middle;resizable=0;points=[];autosize=1;strokeColor=none;fillColor=none;" vertex="1" parent="1">
          <mxGeometry x="445" y="568" width="30" height="30" as="geometry" />
        </mxCell>
        <mxCell id="oETMwb7WQTxF7lPfTcej-37" value="s" style="text;html=1;align=center;verticalAlign=middle;resizable=0;points=[];autosize=1;strokeColor=none;fillColor=none;" vertex="1" parent="1">
          <mxGeometry x="445" y="680" width="30" height="30" as="geometry" />
        </mxCell>
        <mxCell id="oETMwb7WQTxF7lPfTcej-38" value="s" style="text;html=1;align=center;verticalAlign=middle;resizable=0;points=[];autosize=1;strokeColor=none;fillColor=none;" vertex="1" parent="1">
          <mxGeometry x="445" y="778" width="30" height="30" as="geometry" />
        </mxCell>
        <mxCell id="oETMwb7WQTxF7lPfTcej-39" value="n" style="text;html=1;align=center;verticalAlign=middle;resizable=0;points=[];autosize=1;strokeColor=none;fillColor=none;" vertex="1" parent="1">
          <mxGeometry x="345" y="428" width="30" height="30" as="geometry" />
        </mxCell>
        <mxCell id="oETMwb7WQTxF7lPfTcej-40" value="n" style="text;html=1;align=center;verticalAlign=middle;resizable=0;points=[];autosize=1;strokeColor=none;fillColor=none;" vertex="1" parent="1">
          <mxGeometry x="345" y="538" width="30" height="30" as="geometry" />
        </mxCell>
        <mxCell id="oETMwb7WQTxF7lPfTcej-41" value="n" style="text;html=1;align=center;verticalAlign=middle;resizable=0;points=[];autosize=1;strokeColor=none;fillColor=none;" vertex="1" parent="1">
          <mxGeometry x="345" y="648" width="30" height="30" as="geometry" />
        </mxCell>
        <mxCell id="oETMwb7WQTxF7lPfTcej-42" value="n" style="text;html=1;align=center;verticalAlign=middle;resizable=0;points=[];autosize=1;strokeColor=none;fillColor=none;" vertex="1" parent="1">
          <mxGeometry x="345" y="758" width="30" height="30" as="geometry" />
        </mxCell>
        <mxCell id="oETMwb7WQTxF7lPfTcej-43" value="" style="ellipse;whiteSpace=wrap;html=1;aspect=fixed;fillColor=#CC0000;" vertex="1" parent="1">
          <mxGeometry x="700" y="620" width="42" height="42" as="geometry" />
        </mxCell>
        <mxCell id="oETMwb7WQTxF7lPfTcej-55" value="fim" style="text;html=1;align=center;verticalAlign=middle;resizable=0;points=[];autosize=1;strokeColor=none;fillColor=none;" vertex="1" parent="1">
          <mxGeometry x="740" y="628" width="40" height="30" as="geometry" />
        </mxCell>
      </root>
    </mxGraphModel>
  </diagram>
</mxfile>
